<svg width="96" height="99" viewBox="0 0 96 99" fill="none" xmlns="http://www.w3.org/2000/svg">
<path fill-rule="evenodd" clip-rule="evenodd" d="M48.1849 21.222V32.0567C48.1073 32.0561 48.0294 32.0559 47.9511 32.0559H44.7907V21.3443C45.6889 21.2583 46.5994 21.2143 47.5202 21.2143C47.7423 21.2143 47.9639 21.2169 48.1849 21.222ZM51.0135 21.4279V32.2095C51.9672 32.3109 52.8644 32.4624 53.7051 32.6642C55.4119 33.0698 56.8567 33.6866 58.0396 34.5146C59.2225 35.3426 60.1266 36.3904 60.7519 37.6578C61.3771 38.9083 61.6897 40.3953 61.6897 42.119C61.6897 43.6399 61.3433 45.0425 60.6505 46.3268C59.9745 47.6111 58.9015 48.6588 57.4313 49.4699C57.1237 49.6416 56.7961 49.797 56.4484 49.9361C57.2355 50.134 57.9349 50.418 58.5466 50.788C59.9323 51.5991 60.9377 52.6553 61.563 53.9565C62.2051 55.2577 62.5262 56.6518 62.5262 58.1389C62.5262 60.5047 62.0108 62.4988 60.98 64.121C59.9492 65.7264 58.4367 66.9346 56.4427 67.7458C54.9003 68.3785 53.0906 68.7645 51.0135 68.9036V77.5721C64.987 75.8511 75.8059 63.939 75.8059 49.5C75.8059 35.061 64.987 23.149 51.0135 21.4279ZM48.1849 77.7781V68.9625H44.7907V77.6557C45.6889 77.7417 46.5994 77.7857 47.5202 77.7857C47.7423 77.7857 47.9639 77.7832 48.1849 77.7781ZM41.9621 77.2398C29.0018 74.6575 19.2344 63.2194 19.2344 49.5C19.2344 35.7806 29.0018 24.3425 41.9622 21.7602V32.0559H35.0744V68.9625H37.9641H41.9621V77.2398ZM42.6788 52.7651V63.0311H49.1932C50.5282 63.0311 51.6181 62.8198 52.4631 62.3974C53.308 61.958 53.9333 61.3665 54.3388 60.623C54.7444 59.8795 54.9472 59.0261 54.9472 58.0629C54.9472 56.9813 54.7613 56.0435 54.3895 55.2492C54.0347 54.455 53.4601 53.8467 52.6659 53.4242C51.8716 52.9848 50.8239 52.7651 49.5227 52.7651H42.6788ZM47.9511 47.5435H42.6788V38.0126H47.9511C49.3706 38.0126 50.5282 38.1732 51.4238 38.4942C52.3363 38.8153 53.0038 39.3307 53.4263 40.0405C53.8657 40.7502 54.0853 41.6796 54.0853 42.8287C54.0853 43.8427 53.8572 44.7045 53.401 45.4142C52.9616 46.1071 52.2941 46.6394 51.3985 47.0112C50.5028 47.366 49.3537 47.5435 47.9511 47.5435Z" fill="url(#paint0_linear_746_19)"/>
<mask id="path-2-inside-1_746_19" fill="white">
<path fill-rule="evenodd" clip-rule="evenodd" d="M40.4293 4.94462C40.218 7.24772 38.281 9.05143 35.9228 9.05143C33.4233 9.05143 31.397 7.0252 31.397 4.52571C31.397 2.02623 33.4233 0 35.9228 0C37.7324 0 39.294 1.06217 40.0181 2.5971C40.8457 2.46264 41.6759 2.35017 42.508 2.25968C45.9215 1.8884 49.3653 1.88711 52.7791 2.25581C53.623 2.34696 54.4651 2.46071 55.3045 2.59708C56.0286 1.06217 57.5902 0 59.3999 0C61.8994 0 63.9256 2.02623 63.9256 4.52571C63.9256 7.0252 61.8994 9.05143 59.3999 9.05143C57.0416 9.05143 55.1047 7.24771 54.8933 4.9446C50.1031 4.16954 45.2194 4.16957 40.4293 4.94462ZM37.6199 4.52571C37.6199 5.46302 36.8601 6.22286 35.9228 6.22286C34.9854 6.22286 34.2256 5.46302 34.2256 4.52571C34.2256 3.58841 34.9854 2.82857 35.9228 2.82857C36.8601 2.82857 37.6199 3.58841 37.6199 4.52571ZM59.3999 6.22286C60.3372 6.22286 61.097 5.46302 61.097 4.52571C61.097 3.58841 60.3372 2.82857 59.3999 2.82857C58.4626 2.82857 57.7028 3.58841 57.7028 4.52571C57.7028 5.46302 58.4626 6.22286 59.3999 6.22286Z"/>
<path fill-rule="evenodd" clip-rule="evenodd" d="M74.6742 28.8514C75.2611 28.8514 75.8219 28.7397 76.3365 28.5364C79.9566 33.4549 82.2337 39.1978 82.9882 45.2022C83.4431 45.0542 83.9286 44.9743 84.4329 44.9743C84.5736 44.9743 84.7129 44.9805 84.8505 44.9927C84.1658 39.5148 82.2772 34.243 79.3079 29.563C78.8628 28.8615 78.3934 28.1734 77.9002 27.4998C78.704 26.6829 79.1999 25.5622 79.1999 24.3257C79.1999 21.8262 77.1737 19.8 74.6742 19.8C72.1747 19.8 70.1485 21.8262 70.1485 24.3257C70.1485 26.8252 72.1747 28.8514 74.6742 28.8514ZM74.6742 26.0229C75.6115 26.0229 76.3713 25.263 76.3713 24.3257C76.3713 23.3884 75.6115 22.6286 74.6742 22.6286C73.7369 22.6286 72.977 23.3884 72.977 24.3257C72.977 25.263 73.7369 26.0229 74.6742 26.0229Z"/>
<path fill-rule="evenodd" clip-rule="evenodd" d="M84.8505 54.2901C84.7129 54.3023 84.5736 54.3086 84.4329 54.3086C83.9286 54.3086 83.4431 54.2286 82.9882 54.0807C82.2214 60.1836 79.8841 65.9968 76.1909 70.9429C75.4012 70.2711 74.3779 69.8657 73.2599 69.8657C70.7604 69.8657 68.7342 71.8919 68.7342 74.3914C68.7342 76.8909 70.7604 78.9171 73.2599 78.9171C75.7594 78.9171 77.7856 76.8909 77.7856 74.3914C77.7856 73.7128 77.6363 73.0691 77.3686 72.4914C77.6988 72.0621 78.0191 71.6265 78.3295 71.1847C81.854 66.1675 84.0913 60.3648 84.8505 54.2901ZM74.957 74.3914C74.957 75.3287 74.1972 76.0886 73.2599 76.0886C72.3226 76.0886 71.5628 75.3287 71.5628 74.3914C71.5628 73.4541 72.3226 72.6943 73.2599 72.6943C74.1972 72.6943 74.957 73.4541 74.957 74.3914Z"/>
<path fill-rule="evenodd" clip-rule="evenodd" d="M27.4369 24.3257C27.4369 26.8252 25.4107 28.8514 22.9112 28.8514C21.6747 28.8514 20.5541 28.3556 19.7373 27.5519C15.7102 32.6425 13.1634 38.7217 12.3444 45.1226C11.9701 45.0258 11.5775 44.9743 11.1729 44.9743C10.9332 44.9743 10.6977 44.9924 10.4677 45.0272C11.2228 38.94 13.4619 33.1248 16.993 28.0982C17.5217 27.3457 18.0792 26.6109 18.6651 25.8955C18.4843 25.4064 18.3855 24.8776 18.3855 24.3257C18.3855 21.8262 20.4117 19.8 22.9112 19.8C25.4107 19.8 27.4369 21.8262 27.4369 24.3257ZM24.6083 24.3257C24.6083 25.263 23.8485 26.0229 22.9112 26.0229C21.9739 26.0229 21.214 25.263 21.214 24.3257C21.214 23.3884 21.9739 22.6286 22.9112 22.6286C23.8485 22.6286 24.6083 23.3884 24.6083 24.3257Z"/>
<path fill-rule="evenodd" clip-rule="evenodd" d="M10.4677 54.2556C11.1488 59.746 13.0391 65.03 16.0146 69.7199C16.5182 70.5135 17.0528 71.2901 17.6179 72.0478L17.6203 72.051L17.6244 72.0479C17.2099 72.7315 16.9712 73.5336 16.9712 74.3914C16.9712 76.8909 18.9974 78.9171 21.4969 78.9171C23.9964 78.9171 26.0226 76.8909 26.0226 74.3914C26.0226 71.8919 23.9964 69.8657 21.4969 69.8657C20.5423 69.8657 19.6568 70.1612 18.9268 70.6658C15.357 65.787 13.1048 60.1031 12.3444 54.1603C11.97 54.2571 11.5775 54.3086 11.1729 54.3086C10.9331 54.3086 10.6977 54.2905 10.4677 54.2556ZM21.4969 76.0886C22.4342 76.0886 23.194 75.3287 23.194 74.3914C23.194 73.4541 22.4342 72.6943 21.4969 72.6943C20.5596 72.6943 19.7998 73.4541 19.7998 74.3914C19.7998 75.3287 20.5596 76.0886 21.4969 76.0886Z"/>
<path fill-rule="evenodd" clip-rule="evenodd" d="M40.075 96.2775C39.3782 97.8797 37.7813 99 35.9228 99C33.4233 99 31.397 96.9738 31.397 94.4743C31.397 91.9748 33.4233 89.9486 35.9228 89.9486C38.3778 89.9486 40.3763 91.9034 40.4466 94.3415C45.2266 95.113 50.0984 95.1126 54.8761 94.3414C54.9464 91.9034 56.9449 89.9486 59.3999 89.9486C61.8994 89.9486 63.9256 91.9748 63.9256 94.4743C63.9256 96.9738 61.8994 99 59.3999 99C57.6948 99 56.21 98.0571 55.4384 96.6642C54.6561 96.7936 53.8715 96.9033 53.0851 96.9934C49.6737 97.3842 46.23 97.4051 42.8141 97.056C41.8827 96.9607 40.9534 96.838 40.0274 96.6878L40.0087 96.6847L40.075 96.2775ZM37.6199 94.4743C37.6199 95.4116 36.8601 96.1714 35.9228 96.1714C34.9854 96.1714 34.2256 95.4116 34.2256 94.4743C34.2256 93.537 34.9854 92.7771 35.9228 92.7771C36.8601 92.7771 37.6199 93.537 37.6199 94.4743ZM59.3999 96.1714C60.3372 96.1714 61.097 95.4116 61.097 94.4743C61.097 93.537 60.3372 92.7771 59.3999 92.7771C58.4626 92.7771 57.7028 93.537 57.7028 94.4743C57.7028 95.4116 58.4626 96.1714 59.3999 96.1714Z"/>
<path d="M70.2457 7.68399L70.234 7.67683L64.9357 16.3812C60.9641 14.3184 56.6577 12.9852 52.2224 12.4414C52.292 12.7618 52.3286 13.0945 52.3286 13.4357C52.3286 13.7425 52.299 14.0424 52.2425 14.3327C57.342 14.9943 62.2561 16.7554 66.6368 19.5146L66.6445 19.5194L66.9421 19.0473L66.9517 19.0532L67.3309 18.4302L67.6436 17.9341L67.6359 17.9292L71.6918 11.266C77.7431 15.0552 82.8252 20.2303 86.5077 26.3799C86.5985 26.5316 86.6885 26.6838 86.7775 26.8365C87.3384 26.2714 88.043 25.849 88.8318 25.6287C88.7396 25.4705 88.6464 25.3128 88.5522 25.1556C84.6245 18.5964 79.184 13.0904 72.7022 9.08812C71.9038 8.59514 71.0897 8.12497 70.2606 7.67845L70.2514 7.67351L70.2457 7.68399Z"/>
<path d="M92.6847 34.0043C92.0313 34.4421 91.2613 34.7192 90.4311 34.7792C92.0744 39.5083 92.9292 44.4978 92.9397 49.5471C92.9503 54.6599 92.0952 59.7149 90.4311 64.5037C91.2613 64.5637 92.0313 64.8408 92.6847 65.2786C94.4347 60.2399 95.334 54.9214 95.3228 49.5422C95.3117 44.2297 94.4128 38.9801 92.6847 34.0043Z"/>
<path d="M88.8318 73.6542C88.7729 73.7552 88.7136 73.8561 88.6539 73.9567C84.7535 80.5323 79.336 86.0608 72.8709 90.0901C72.0717 90.5882 71.2564 91.0634 70.426 91.5149L69.9469 90.6337L64.6576 83.0447C60.7932 85.011 56.6203 86.2899 52.3267 86.8285C52.328 86.7844 52.3286 86.7401 52.3286 86.6957C52.3286 86.0901 52.2132 85.5114 52.0033 84.9804C57.0825 84.3563 61.986 82.6422 66.37 79.9346L66.3717 79.9336L67.0712 81.0661L71.8474 87.9189C77.8847 84.1043 82.9466 78.9072 86.6042 72.741C86.6624 72.6429 86.7201 72.5447 86.7775 72.4463C87.3384 73.0115 88.043 73.4338 88.8318 73.6542Z"/>
<path d="M43.3196 84.9804C38.1345 84.3433 33.1352 82.5705 28.686 79.7682L28.6784 79.7634L27.6793 81.3488L27.7012 81.3626L23.5137 87.9431C17.514 84.1606 12.4738 79.0128 8.81519 72.903C8.68745 72.6896 8.56154 72.4754 8.43746 72.2602C7.90556 72.8579 7.22236 73.3179 6.44795 73.5801C6.55425 73.7631 6.66182 73.9455 6.77064 74.1273C10.6984 80.6865 16.1389 86.1924 22.6206 90.1947C23.419 90.6877 24.2332 91.1579 25.0623 91.6044L25.0715 91.6093L26.1848 89.5409L30.4042 82.9105C34.3399 84.9521 38.6039 86.2775 42.9961 86.8285C42.9949 86.7844 42.9943 86.7401 42.9943 86.6957C42.9943 86.0901 43.1097 85.5114 43.3196 84.9804Z"/>
<path d="M2.58774 65.1325C3.26392 64.7349 4.04912 64.5028 4.88766 64.4918C3.24702 59.7662 2.39368 54.7808 2.38317 49.7357C2.37253 44.6272 3.22629 39.5763 4.88766 34.791C4.04912 34.78 3.26392 34.5479 2.58773 34.1503C0.870926 39.1457 -0.0109936 44.4134 0.000103436 49.7407C0.0110614 55.0012 0.892544 60.2001 2.58774 65.1325Z"/>
<path d="M6.44796 25.7027C6.52104 25.5769 6.59473 25.4514 6.66901 25.3261C10.5694 18.7506 15.9869 13.222 22.4519 9.19278C23.2512 8.69465 24.0665 8.21942 24.8969 7.76797L25.1784 8.28581L30.7064 16.2173C34.5906 14.247 38.7854 12.9705 43.1004 12.4414C43.0309 12.7618 42.9943 13.0945 42.9943 13.4357C42.9943 13.7425 43.0239 14.0424 43.0804 14.3327C38.0865 14.9806 33.268 16.6832 28.9528 19.3482L28.9512 19.3492L27.9664 17.7549L27.9797 17.7467L23.5141 11.3395C17.4598 15.1564 12.3841 20.3625 8.71863 26.5419C8.62388 26.7016 8.53016 26.8619 8.43746 27.0226C7.90556 26.425 7.22236 25.965 6.44796 25.7027Z"/>
<path d="M89.1 49.6414C89.1 52.219 87.0105 54.3086 84.4329 54.3086C81.8553 54.3086 79.7657 52.219 79.7657 49.6414C79.7657 47.0638 81.8553 44.9743 84.4329 44.9743C87.0105 44.9743 89.1 47.0638 89.1 49.6414Z"/>
<path d="M15.84 49.6414C15.84 52.219 13.7504 54.3086 11.1729 54.3086C8.59527 54.3086 6.50571 52.219 6.50571 49.6414C6.50571 47.0638 8.59527 44.9743 11.1729 44.9743C13.7504 44.9743 15.84 47.0638 15.84 49.6414Z"/>
<path d="M52.3286 13.4357C52.3286 16.0133 50.239 18.1029 47.6614 18.1029C45.0838 18.1029 42.9943 16.0133 42.9943 13.4357C42.9943 10.8581 45.0838 8.76857 47.6614 8.76857C50.239 8.76857 52.3286 10.8581 52.3286 13.4357Z"/>
<path d="M52.3286 86.6957C52.3286 89.2733 50.239 91.3629 47.6614 91.3629C45.0838 91.3629 42.9943 89.2733 42.9943 86.6957C42.9943 84.1181 45.0838 82.0286 47.6614 82.0286C50.239 82.0286 52.3286 84.1181 52.3286 86.6957Z"/>
<path d="M94.7571 30.1243C94.7571 32.7019 92.6676 34.7914 90.09 34.7914C87.5124 34.7914 85.4229 32.7019 85.4229 30.1243C85.4229 27.5467 87.5124 25.4571 90.09 25.4571C92.6676 25.4571 94.7571 27.5467 94.7571 30.1243Z"/>
<path d="M9.61714 30.1243C9.61714 32.7019 7.52759 34.7914 4.95 34.7914C2.37241 34.7914 0.282857 32.7019 0.282857 30.1243C0.282857 27.5467 2.37241 25.4571 4.95 25.4571C7.52759 25.4571 9.61714 27.5467 9.61714 30.1243Z"/>
<path d="M94.7571 69.1586C94.7571 71.7362 92.6676 73.8257 90.09 73.8257C87.5124 73.8257 85.4229 71.7362 85.4229 69.1586C85.4229 66.581 87.5124 64.4914 90.09 64.4914C92.6676 64.4914 94.7571 66.581 94.7571 69.1586Z"/>
<path d="M9.61714 69.1586C9.61714 71.7362 7.52759 73.8257 4.95 73.8257C2.37241 73.8257 0.282857 71.7362 0.282857 69.1586C0.282857 66.581 2.37241 64.4914 4.95 64.4914C7.52759 64.4914 9.61714 66.581 9.61714 69.1586Z"/>
</mask>
<path d="M40.4293 4.94462L39.9775 2.15236L37.813 2.50259L37.6126 4.6861L40.4293 4.94462ZM40.0181 2.5971L37.4599 3.80393L38.3689 5.73071L40.4718 5.38906L40.0181 2.5971ZM42.508 2.25968L42.8138 5.07166L42.8138 5.07166L42.508 2.25968ZM52.7791 2.25581L53.0828 -0.556409L53.0828 -0.55641L52.7791 2.25581ZM55.3045 2.59708L54.8509 5.38905L56.9538 5.73069L57.8627 3.80392L55.3045 2.59708ZM54.8933 4.9446L57.71 4.6861L57.5097 2.50257L55.3451 2.15235L54.8933 4.9446ZM76.3365 28.5364L78.6146 26.8597L77.3232 25.1052L75.2971 25.9057L76.3365 28.5364ZM82.9882 45.2022L80.1817 45.5549L80.6084 48.9505L83.863 47.8921L82.9882 45.2022ZM84.8505 44.9927L84.6007 47.8102L88.092 48.1198L87.6573 44.6419L84.8505 44.9927ZM79.3079 29.563L81.6963 28.0476L81.6962 28.0476L79.3079 29.563ZM77.9002 27.4998L75.8841 25.5159L74.1971 27.2303L75.6181 29.1709L77.9002 27.4998ZM84.8505 54.2901L87.6573 54.641L88.092 51.163L84.6007 51.4726L84.8505 54.2901ZM82.9882 54.0807L83.863 51.3908L80.6084 50.3323L80.1817 53.728L82.9882 54.0807ZM76.1909 70.9429L74.358 73.0973L76.6539 75.0506L78.4574 72.6353L76.1909 70.9429ZM77.3686 72.4914L75.1266 70.7668L74.0817 72.1252L74.802 73.6802L77.3686 72.4914ZM78.3295 71.1847L80.644 72.8106L80.644 72.8106L78.3295 71.1847ZM19.7373 27.5519L21.7211 25.5356L19.4744 23.3251L17.5189 25.797L19.7373 27.5519ZM12.3444 45.1226L11.6365 47.8611L14.7429 48.6642L15.1501 45.4815L12.3444 45.1226ZM10.4677 45.0272L7.66063 44.679L7.20113 48.3832L10.8916 47.8238L10.4677 45.0272ZM16.993 28.0982L19.3076 29.7241L19.3076 29.7241L16.993 28.0982ZM18.6651 25.8955L20.8535 27.6876L21.8801 26.434L21.3181 24.9143L18.6651 25.8955ZM10.4677 54.2556L10.8915 51.459L7.20107 50.8997L7.66062 54.6039L10.4677 54.2556ZM16.0146 69.7199L13.6263 71.2352L13.6263 71.2352L16.0146 69.7199ZM17.6179 72.0478L19.8855 70.3569L19.8853 70.3567L17.6179 72.0478ZM17.6203 72.051L15.3527 73.7418L17.0434 76.0092L19.3109 74.3187L17.6203 72.051ZM17.6244 72.0479L20.043 73.5147L15.9338 69.7802L17.6244 72.0479ZM18.9268 70.6658L16.644 72.3361L18.2699 74.5582L20.535 72.9927L18.9268 70.6658ZM12.3444 54.1603L15.1501 53.8013L14.7429 50.6187L11.6365 51.4218L12.3444 54.1603ZM40.075 96.2775L42.8668 96.7316L37.4811 95.1495L40.075 96.2775ZM40.4466 94.3415L37.6192 94.423L37.6865 96.7612L39.9959 97.134L40.4466 94.3415ZM54.8761 94.3414L55.3268 97.1339L57.6361 96.7611L57.7035 94.4229L54.8761 94.3414ZM55.4384 96.6642L57.9126 95.2935L56.9456 93.5479L54.9768 93.8736L55.4384 96.6642ZM53.0851 96.9934L52.7632 94.1832L52.7632 94.1832L53.0851 96.9934ZM42.8141 97.056L42.5264 99.8699L42.5264 99.8699L42.8141 97.056ZM40.0274 96.6878L39.574 99.4798L39.5744 99.4798L40.0274 96.6878ZM40.0087 96.6847L37.2169 96.2306L36.7626 99.0232L39.5553 99.4767L40.0087 96.6847ZM70.234 7.67683L71.7048 5.26075L69.2886 3.78982L67.8178 6.20612L70.234 7.67683ZM70.2457 7.68399L68.7749 10.1001L71.3224 11.651L72.7363 9.02487L70.2457 7.68399ZM64.9357 16.3812L63.6319 18.8914L65.9776 20.1096L67.3518 17.8519L64.9357 16.3812ZM52.2224 12.4414L52.5667 9.63385L48.6137 9.14919L49.4582 13.0412L52.2224 12.4414ZM52.2425 14.3327L49.466 13.7922L48.8902 16.75L51.8785 17.1378L52.2425 14.3327ZM66.6368 19.5146L68.1447 17.1215L68.1443 17.1212L66.6368 19.5146ZM66.6445 19.5194L65.1366 21.9126L67.5296 23.4203L69.0375 21.0275L66.6445 19.5194ZM66.9421 19.0473L68.4128 16.6312L66.0339 15.183L64.549 17.5392L66.9421 19.0473ZM66.9517 19.0532L65.481 21.4693L67.8972 22.9401L69.3679 20.5239L66.9517 19.0532ZM67.3309 18.4302L64.9379 16.9221L64.9262 16.9407L64.9148 16.9595L67.3309 18.4302ZM67.6436 17.9341L70.0366 19.4422L71.5448 17.049L69.1515 15.541L67.6436 17.9341ZM67.6359 17.9292L65.2197 16.4585L63.7716 18.8376L66.128 20.3223L67.6359 17.9292ZM71.6918 11.266L73.1929 8.86865L70.7651 7.34834L69.2756 9.79529L71.6918 11.266ZM86.5077 26.3799L88.9344 24.9267L88.9344 24.9267L86.5077 26.3799ZM86.7775 26.8365L84.3339 28.2611L86.1895 31.4441L88.785 28.8292L86.7775 26.8365ZM88.8318 25.6287L89.5927 28.353L93.1206 27.3677L91.2752 24.2037L88.8318 25.6287ZM88.5522 25.1556L90.979 23.7025L90.979 23.7024L88.5522 25.1556ZM72.7022 9.08812L74.1883 6.68139L74.1883 6.68139L72.7022 9.08812ZM70.2606 7.67845L71.6018 5.18807L71.6013 5.18783L70.2606 7.67845ZM70.2514 7.67351L71.5921 5.18289L69.1016 3.84221L67.7608 6.33263L70.2514 7.67351ZM92.6847 34.0043L95.3567 33.0763L94.1544 29.6146L91.1102 31.6545L92.6847 34.0043ZM90.4311 34.7792L90.2273 31.9579L86.5486 32.2236L87.7592 35.7076L90.4311 34.7792ZM92.9397 49.5471L90.1111 49.553L90.1111 49.553L92.9397 49.5471ZM90.4311 64.5037L87.7592 63.5753L86.5486 67.0592L90.2273 67.3249L90.4311 64.5037ZM92.6847 65.2786L91.1102 67.6284L94.1544 69.6682L95.3567 66.2066L92.6847 65.2786ZM95.3228 49.5422L98.1513 49.5363L98.1513 49.5363L95.3228 49.5422ZM88.8318 73.6542L91.2752 75.0792L93.1205 71.9151L89.5927 70.9298L88.8318 73.6542ZM88.6539 73.9567L86.2211 72.5137L86.2211 72.5137L88.6539 73.9567ZM72.8709 90.0901L74.367 92.4906L74.367 92.4906L72.8709 90.0901ZM70.426 91.5149L67.9409 92.8659L69.2919 95.351L71.777 94L70.426 91.5149ZM69.9469 90.6337L72.432 89.2827L72.3571 89.1449L72.2675 89.0163L69.9469 90.6337ZM64.6576 83.0447L66.9781 81.4273L65.5699 79.4068L63.3749 80.5237L64.6576 83.0447ZM52.3267 86.8285L49.4993 86.7494L49.407 90.0456L52.6788 89.6351L52.3267 86.8285ZM52.0033 84.9804L51.6583 82.1729L48.0279 82.619L49.3728 86.0204L52.0033 84.9804ZM66.37 79.9346L67.8563 82.3413L67.858 82.3402L66.37 79.9346ZM66.3717 79.9336L68.7782 78.4472L67.2909 76.0391L64.8837 77.528L66.3717 79.9336ZM67.0712 81.0661L64.6647 82.5525L64.7059 82.6192L64.7507 82.6835L67.0712 81.0661ZM71.8474 87.9189L69.5269 89.5363L71.0728 91.7543L73.3583 90.3102L71.8474 87.9189ZM86.6042 72.741L84.1715 71.2979L84.1714 71.2979L86.6042 72.741ZM86.7775 72.4463L88.785 70.4537L86.1896 67.8389L84.3339 71.0217L86.7775 72.4463ZM28.686 79.7682L30.1935 77.3748L30.1934 77.3748L28.686 79.7682ZM43.3196 84.9804L45.95 86.0204L47.295 82.619L43.6645 82.1729L43.3196 84.9804ZM28.6784 79.7634L30.1857 77.37L27.793 75.863L26.2854 78.2553L28.6784 79.7634ZM27.6793 81.3488L25.2862 79.8407L23.7774 82.2349L26.1723 83.7425L27.6793 81.3488ZM27.7012 81.3626L30.0876 82.8812L31.6136 80.4832L29.2082 78.9689L27.7012 81.3626ZM23.5137 87.9431L22.0051 90.3358L24.3878 91.838L25.9 89.4617L23.5137 87.9431ZM8.81519 72.903L11.2419 71.4498L11.2419 71.4498L8.81519 72.903ZM8.43746 72.2602L10.8878 70.8472L8.93002 67.4522L6.32454 70.3797L8.43746 72.2602ZM6.44795 73.5801L5.54062 70.901L2.26508 72.0104L4.00204 75.0008L6.44795 73.5801ZM6.77064 74.1273L9.1974 72.6741L9.19738 72.6741L6.77064 74.1273ZM22.6206 90.1947L21.1345 92.6015L21.1345 92.6015L22.6206 90.1947ZM25.0623 91.6044L26.404 89.1143L26.4035 89.114L25.0623 91.6044ZM25.0715 91.6093L23.7298 94.0995L26.221 95.4417L27.5622 92.95L25.0715 91.6093ZM26.1848 89.5409L23.7985 88.0223L23.7431 88.1094L23.6942 88.2003L26.1848 89.5409ZM30.4042 82.9105L31.7066 80.3996L29.408 79.2073L28.0178 81.3919L30.4042 82.9105ZM42.9961 86.8285L42.644 89.6351L45.9158 90.0456L45.8236 86.7494L42.9961 86.8285ZM4.88766 64.4918L4.92468 67.3202L8.84597 67.2688L7.55977 63.5641L4.88766 64.4918ZM2.58774 65.1325L-0.087265 66.0519L1.03774 69.3253L4.02148 67.5708L2.58774 65.1325ZM2.38317 49.7357L-0.445394 49.7416L-0.445394 49.7416L2.38317 49.7357ZM4.88766 34.791L7.55977 35.7187L8.84597 32.014L4.92468 31.9627L4.88766 34.791ZM2.58773 34.1503L4.02148 31.712L1.03774 29.9576L-0.0872652 33.231L2.58773 34.1503ZM0.000103436 49.7407L-2.82846 49.7466L0.000103436 49.7407ZM6.44796 25.7027L4.00206 24.282L2.26505 27.2725L5.54063 28.3818L6.44796 25.7027ZM6.66901 25.3261L9.10179 26.7692L9.10179 26.7692L6.66901 25.3261ZM22.4519 9.19278L20.9558 6.79225L20.9558 6.79226L22.4519 9.19278ZM24.8969 7.76797L27.3819 6.41696L26.0309 3.93189L23.5459 5.2829L24.8969 7.76797ZM25.1784 8.28581L22.6933 9.63682L22.7682 9.77455L22.8578 9.90316L25.1784 8.28581ZM30.7064 16.2173L28.3859 17.8347L29.7923 19.8527L31.986 18.7399L30.7064 16.2173ZM43.1004 12.4414L45.8647 13.0412L46.7092 9.14919L42.7562 9.63385L43.1004 12.4414ZM43.0804 14.3327L43.4443 17.1378L46.4327 16.75L45.8569 13.7922L43.0804 14.3327ZM28.9528 19.3482L27.4665 16.9416L27.4657 16.9421L28.9528 19.3482ZM28.9512 19.3492L26.5446 20.8357L28.0315 23.2429L30.4383 21.7553L28.9512 19.3492ZM27.9664 17.7549L26.4806 15.348L24.0731 16.8342L25.5599 19.2413L27.9664 17.7549ZM27.9797 17.7467L29.4656 20.1536L32.0102 18.5827L30.3003 16.1293L27.9797 17.7467ZM23.5141 11.3395L25.8347 9.72213L24.2904 7.50636L22.0056 8.94673L23.5141 11.3395ZM8.71863 26.5419L11.1514 27.985L11.1514 27.985L8.71863 26.5419ZM8.43746 27.0226L6.32454 28.9032L8.93004 31.8306L10.8878 28.4357L8.43746 27.0226ZM35.9228 11.88C39.7565 11.88 42.9023 8.94868 43.2461 5.20313L37.6126 4.6861C37.5336 5.54676 36.8055 6.22286 35.9228 6.22286V11.88ZM28.5685 4.52571C28.5685 8.58737 31.8611 11.88 35.9228 11.88V6.22286C34.9854 6.22286 34.2256 5.46302 34.2256 4.52571H28.5685ZM35.9228 -2.82857C31.8611 -2.82857 28.5685 0.464055 28.5685 4.52571H34.2256C34.2256 3.58841 34.9854 2.82857 35.9228 2.82857V-2.82857ZM42.5763 1.39027C41.4028 -1.09746 38.8678 -2.82857 35.9228 -2.82857V2.82857C36.5971 2.82857 37.1853 3.2218 37.4599 3.80393L42.5763 1.39027ZM42.2021 -0.552312C41.3207 -0.456449 40.4412 -0.3373 39.5645 -0.194866L40.4718 5.38906C41.2502 5.26258 42.0312 5.15679 42.8138 5.07166L42.2021 -0.552312ZM53.0828 -0.55641C49.4664 -0.946994 45.8183 -0.945619 42.2021 -0.552312L42.8138 5.07166C46.0248 4.72243 49.2641 4.72121 52.4754 5.06803L53.0828 -0.55641ZM55.7581 -0.194882C54.8689 -0.339343 53.9769 -0.45985 53.0828 -0.556409L52.4754 5.06802C53.2692 5.15377 54.0614 5.26077 54.8509 5.38905L55.7581 -0.194882ZM59.3999 -2.82857C56.4549 -2.82857 53.9199 -1.09747 52.7463 1.39025L57.8627 3.80392C58.1373 3.22181 58.7255 2.82857 59.3999 2.82857V-2.82857ZM66.7542 4.52571C66.7542 0.464054 63.4616 -2.82857 59.3999 -2.82857V2.82857C60.3372 2.82857 61.097 3.58841 61.097 4.52571H66.7542ZM59.3999 11.88C63.4616 11.88 66.7542 8.58738 66.7542 4.52571H61.097C61.097 5.46302 60.3372 6.22286 59.3999 6.22286V11.88ZM52.0766 5.20311C52.4203 8.94867 55.5662 11.88 59.3999 11.88V6.22286C58.5171 6.22286 57.789 5.54676 57.71 4.6861L52.0766 5.20311ZM40.8811 7.73687C45.372 7.01024 49.9505 7.01022 54.4415 7.73686L55.3451 2.15235C50.2556 1.32887 45.0669 1.32889 39.9775 2.15236L40.8811 7.73687ZM35.9228 9.05143C38.4222 9.05143 40.4485 7.0252 40.4485 4.52571H34.7913C34.7913 3.90084 35.2979 3.39429 35.9228 3.39429V9.05143ZM31.397 4.52571C31.397 7.0252 33.4233 9.05143 35.9228 9.05143V3.39429C36.5476 3.39429 37.0542 3.90084 37.0542 4.52571H31.397ZM35.9228 -5.96046e-08C33.4233 -5.96046e-08 31.397 2.02623 31.397 4.52571H37.0542C37.0542 5.15058 36.5476 5.65714 35.9228 5.65714V-5.96046e-08ZM40.4485 4.52571C40.4485 2.02623 38.4222 -5.96046e-08 35.9228 -5.96046e-08V5.65714C35.2979 5.65714 34.7913 5.15059 34.7913 4.52571H40.4485ZM58.2685 4.52571C58.2685 3.90084 58.775 3.39429 59.3999 3.39429V9.05143C61.8994 9.05143 63.9256 7.0252 63.9256 4.52571H58.2685ZM59.3999 5.65714C58.775 5.65714 58.2685 5.15059 58.2685 4.52571H63.9256C63.9256 2.02623 61.8994 -5.96046e-08 59.3999 -5.96046e-08V5.65714ZM60.5313 4.52571C60.5313 5.15059 60.0248 5.65714 59.3999 5.65714V-5.96046e-08C56.9004 -5.96046e-08 54.8742 2.02623 54.8742 4.52571H60.5313ZM59.3999 3.39429C60.0248 3.39429 60.5313 3.90084 60.5313 4.52571H54.8742C54.8742 7.0252 56.9004 9.05143 59.3999 9.05143V3.39429ZM75.2971 25.9057C75.108 25.9804 74.8995 26.0229 74.6742 26.0229V31.68C75.6227 31.68 76.5358 31.499 77.3759 31.167L75.2971 25.9057ZM85.7947 44.8495C84.9802 38.3681 82.5223 32.169 78.6146 26.8597L74.0585 30.2131C77.3909 34.7408 79.4871 40.0274 80.1817 45.5549L85.7947 44.8495ZM84.4329 42.1457C83.628 42.1457 82.8474 42.2736 82.1134 42.5123L83.863 47.8921C84.0388 47.8349 84.2293 47.8029 84.4329 47.8029V42.1457ZM85.1004 42.1752C84.8798 42.1556 84.6572 42.1457 84.4329 42.1457V47.8029C84.4901 47.8029 84.546 47.8054 84.6007 47.8102L85.1004 42.1752ZM76.9195 31.0784C79.6647 35.4051 81.4107 40.279 82.0438 45.3436L87.6573 44.6419C86.9208 38.7505 84.8898 33.0809 81.6963 28.0476L76.9195 31.0784ZM75.6181 29.1709C76.0741 29.7936 76.508 30.4299 76.9195 31.0784L81.6962 28.0476C81.2176 27.2932 80.7128 26.5531 80.1824 25.8287L75.6181 29.1709ZM76.3713 24.3257C76.3713 24.7903 76.1884 25.2066 75.8841 25.5159L79.9164 29.4837C81.2196 28.1592 82.0285 26.3341 82.0285 24.3257H76.3713ZM74.6742 22.6286C75.6115 22.6286 76.3713 23.3884 76.3713 24.3257H82.0285C82.0285 20.2641 78.7358 16.9714 74.6742 16.9714V22.6286ZM72.977 24.3257C72.977 23.3884 73.7369 22.6286 74.6742 22.6286V16.9714C70.6125 16.9714 67.3199 20.2641 67.3199 24.3257H72.977ZM74.6742 26.0229C73.7369 26.0229 72.977 25.263 72.977 24.3257H67.3199C67.3199 28.3874 70.6125 31.68 74.6742 31.68V26.0229ZM84.4329 57.1371C84.6572 57.1371 84.8798 57.1272 85.1004 57.1077L84.6007 51.4726C84.546 51.4775 84.4901 51.48 84.4329 51.48V57.1371ZM82.1134 56.7706C82.8473 57.0093 83.6279 57.1371 84.4329 57.1371V51.48C84.2293 51.48 84.0388 51.448 83.863 51.3908L82.1134 56.7706ZM78.4574 72.6353C82.444 67.2961 84.9669 61.0211 85.7947 54.4333L80.1817 53.728C79.4758 59.3461 77.3242 64.6975 73.9244 69.2506L78.4574 72.6353ZM73.2599 72.6943C73.6814 72.6943 74.0606 72.8443 74.358 73.0973L78.0238 68.7886C76.7419 67.6979 75.0744 67.0371 73.2599 67.0371V72.6943ZM71.5628 74.3914C71.5628 73.4541 72.3226 72.6943 73.2599 72.6943V67.0371C69.1982 67.0371 65.9056 70.3298 65.9056 74.3914H71.5628ZM73.2599 76.0886C72.3226 76.0886 71.5628 75.3287 71.5628 74.3914H65.9056C65.9056 78.4531 69.1982 81.7457 73.2599 81.7457V76.0886ZM74.957 74.3914C74.957 75.3287 74.1972 76.0886 73.2599 76.0886V81.7457C77.3216 81.7457 80.6142 78.4531 80.6142 74.3914H74.957ZM74.802 73.6802C74.9006 73.8931 74.957 74.1318 74.957 74.3914H80.6142C80.6142 73.2939 80.3719 72.2452 79.9352 71.3025L74.802 73.6802ZM76.0149 69.5587C75.728 69.9672 75.4319 70.37 75.1266 70.7668L79.6107 74.2159C79.9658 73.7543 80.3102 73.2857 80.644 72.8106L76.0149 69.5587ZM82.0438 53.9393C81.3418 59.5555 79.2734 64.9203 76.0149 69.5587L80.644 72.8106C84.4346 67.4147 86.8407 61.1741 87.6573 54.641L82.0438 53.9393ZM73.5428 24.3257C73.5428 23.7008 74.0493 23.1943 74.6742 23.1943V28.8514C77.1737 28.8514 79.1999 26.8252 79.1999 24.3257H73.5428ZM74.6742 25.4571C74.0493 25.4571 73.5428 24.9506 73.5428 24.3257H79.1999C79.1999 21.8262 77.1737 19.8 74.6742 19.8V25.4571ZM75.8056 24.3257C75.8056 24.9506 75.2991 25.4571 74.6742 25.4571V19.8C72.1747 19.8 70.1485 21.8262 70.1485 24.3257H75.8056ZM74.6742 23.1943C75.2991 23.1943 75.8056 23.7008 75.8056 24.3257H70.1485C70.1485 26.8252 72.1747 28.8514 74.6742 28.8514V23.1943ZM73.2599 78.9171C75.7594 78.9171 77.7856 76.8909 77.7856 74.3914H72.1285C72.1285 73.7666 72.635 73.26 73.2599 73.26V78.9171ZM68.7342 74.3914C68.7342 76.8909 70.7604 78.9171 73.2599 78.9171V73.26C73.8848 73.26 74.3913 73.7666 74.3913 74.3914H68.7342ZM73.2599 69.8657C70.7604 69.8657 68.7342 71.8919 68.7342 74.3914H74.3913C74.3913 75.0163 73.8848 75.5229 73.2599 75.5229V69.8657ZM77.7856 74.3914C77.7856 71.8919 75.7594 69.8657 73.2599 69.8657V75.5229C72.635 75.5229 72.1285 75.0163 72.1285 74.3914H77.7856ZM22.9112 31.68C26.9728 31.68 30.2655 28.3874 30.2655 24.3257H24.6083C24.6083 25.263 23.8485 26.0229 22.9112 26.0229V31.68ZM17.7535 29.5682C19.0779 30.8713 20.9029 31.68 22.9112 31.68V26.0229C22.4466 26.0229 22.0303 25.8399 21.7211 25.5356L17.7535 29.5682ZM15.1501 45.4815C15.904 39.5892 18.2486 33.9929 21.9556 29.3068L17.5189 25.797C13.1719 31.2921 10.4227 37.8542 9.53871 44.7636L15.1501 45.4815ZM13.0524 42.384C12.4487 42.228 11.8183 42.1457 11.1729 42.1457V47.8029C11.3366 47.8029 11.4914 47.8236 11.6365 47.8611L13.0524 42.384ZM11.1729 42.1457C10.7908 42.1457 10.4136 42.1745 10.0438 42.2306L10.8916 47.8238C10.9817 47.8102 11.0755 47.8029 11.1729 47.8029V42.1457ZM14.6785 26.4722C10.8808 31.8783 8.47273 38.1324 7.66063 44.679L13.2747 45.3754C13.9729 39.7477 16.043 34.3713 19.3076 29.7241L14.6785 26.4722ZM16.4767 24.1033C15.8467 24.8727 15.247 25.6629 14.6785 26.4722L19.3076 29.7241C19.7963 29.0284 20.3118 28.3491 20.8535 27.6876L16.4767 24.1033ZM15.5569 24.3257C15.5569 25.2174 15.7169 26.0782 16.0121 26.8766L21.3181 24.9143C21.2516 24.7347 21.214 24.5378 21.214 24.3257H15.5569ZM22.9112 16.9714C18.8495 16.9714 15.5569 20.2641 15.5569 24.3257H21.214C21.214 23.3884 21.9739 22.6286 22.9112 22.6286V16.9714ZM30.2655 24.3257C30.2655 20.2641 26.9728 16.9714 22.9112 16.9714V22.6286C23.8485 22.6286 24.6083 23.3884 24.6083 24.3257H30.2655ZM7.66062 54.6039C8.39316 60.5086 10.426 66.1914 13.6263 71.2352L18.403 68.2045C15.6521 63.8687 13.9045 58.9834 13.2747 53.9074L7.66062 54.6039ZM13.6263 71.2352C14.1678 72.0888 14.7428 72.924 15.3505 73.7388L19.8853 70.3567C19.3628 69.6562 18.8686 68.9382 18.403 68.2045L13.6263 71.2352ZM15.3503 73.7386L15.3527 73.7418L19.8879 70.3602L19.8855 70.3569L15.3503 73.7386ZM19.3109 74.3187L19.3151 74.3156L15.9338 69.7802L15.9297 69.7833L19.3109 74.3187ZM15.2059 70.5811C14.5307 71.6944 14.1426 73.0019 14.1426 74.3914H19.7998C19.7998 74.0652 19.889 73.7685 20.043 73.5147L15.2059 70.5811ZM14.1426 74.3914C14.1426 78.4531 17.4352 81.7457 21.4969 81.7457V76.0886C20.5596 76.0886 19.7998 75.3287 19.7998 74.3914H14.1426ZM21.4969 81.7457C25.5586 81.7457 28.8512 78.4531 28.8512 74.3914H23.194C23.194 75.3287 22.4342 76.0886 21.4969 76.0886V81.7457ZM28.8512 74.3914C28.8512 70.3298 25.5586 67.0371 21.4969 67.0371V72.6943C22.4342 72.6943 23.194 73.4541 23.194 74.3914H28.8512ZM21.4969 67.0371C19.9495 67.0371 18.506 67.5182 17.3185 68.3389L20.535 72.9927C20.8075 72.8043 21.1351 72.6943 21.4969 72.6943V67.0371ZM21.2095 68.9955C17.9234 64.5044 15.8501 59.272 15.1501 53.8013L9.53871 54.5193C10.3595 60.9341 12.7906 67.0696 16.644 72.3361L21.2095 68.9955ZM11.1729 57.1371C11.8183 57.1371 12.4487 57.0549 13.0524 56.8988L11.6365 51.4218C11.4914 51.4593 11.3366 51.48 11.1729 51.48V57.1371ZM10.0438 57.0523C10.4136 57.1083 10.7908 57.1371 11.1729 57.1371V51.48C11.0755 51.48 10.9817 51.4727 10.8915 51.459L10.0438 57.0523ZM22.9112 28.8514C25.4107 28.8514 27.4369 26.8252 27.4369 24.3257H21.7798C21.7798 23.7008 22.2863 23.1943 22.9112 23.1943V28.8514ZM18.3855 24.3257C18.3855 26.8252 20.4117 28.8514 22.9112 28.8514V23.1943C23.5361 23.1943 24.0426 23.7008 24.0426 24.3257H18.3855ZM22.9112 19.8C20.4117 19.8 18.3855 21.8262 18.3855 24.3257H24.0426C24.0426 24.9506 23.5361 25.4571 22.9112 25.4571V19.8ZM27.4369 24.3257C27.4369 21.8262 25.4107 19.8 22.9112 19.8V25.4571C22.2863 25.4571 21.7798 24.9506 21.7798 24.3257H27.4369ZM20.3655 74.3914C20.3655 73.7666 20.872 73.26 21.4969 73.26V78.9171C23.9964 78.9171 26.0226 76.8909 26.0226 74.3914H20.3655ZM21.4969 75.5229C20.872 75.5229 20.3655 75.0163 20.3655 74.3914H26.0226C26.0226 71.8919 23.9964 69.8657 21.4969 69.8657V75.5229ZM22.6283 74.3914C22.6283 75.0163 22.1218 75.5229 21.4969 75.5229V69.8657C18.9974 69.8657 16.9712 71.8919 16.9712 74.3914H22.6283ZM21.4969 73.26C22.1218 73.26 22.6283 73.7666 22.6283 74.3914H16.9712C16.9712 76.8909 18.9974 78.9171 21.4969 78.9171V73.26ZM35.9228 101.829C38.9473 101.829 41.5392 100.003 42.6689 97.4055L37.4811 95.1495C37.2172 95.7562 36.6153 96.1714 35.9228 96.1714V101.829ZM28.5685 94.4743C28.5685 98.5359 31.8611 101.829 35.9228 101.829V96.1714C34.9854 96.1714 34.2256 95.4116 34.2256 94.4743H28.5685ZM35.9228 87.12C31.8611 87.12 28.5685 90.4126 28.5685 94.4743H34.2256C34.2256 93.537 34.9854 92.7771 35.9228 92.7771V87.12ZM43.274 94.2601C43.1598 90.2966 39.9127 87.12 35.9228 87.12V92.7771C36.8429 92.7771 37.5929 93.5103 37.6192 94.423L43.274 94.2601ZM54.4254 91.549C49.9461 92.272 45.3787 92.2724 40.8972 91.5491L39.9959 97.134C45.0746 97.9537 50.2506 97.9532 55.3268 97.1339L54.4254 91.549ZM59.3999 87.12C55.41 87.12 52.163 90.2965 52.0487 94.2599L57.7035 94.4229C57.7298 93.5103 58.4797 92.7771 59.3999 92.7771V87.12ZM66.7542 94.4743C66.7542 90.4126 63.4616 87.12 59.3999 87.12V92.7771C60.3372 92.7771 61.097 93.537 61.097 94.4743H66.7542ZM59.3999 101.829C63.4616 101.829 66.7542 98.5359 66.7542 94.4743H61.097C61.097 95.4116 60.3372 96.1714 59.3999 96.1714V101.829ZM52.9641 98.0349C54.2139 100.291 56.6254 101.829 59.3999 101.829V96.1714C58.7643 96.1714 58.206 95.8232 57.9126 95.2935L52.9641 98.0349ZM53.407 99.8036C54.24 99.7082 55.0713 99.5919 55.8999 99.4549L54.9768 93.8736C54.241 93.9953 53.5029 94.0985 52.7632 94.1832L53.407 99.8036ZM42.5264 99.8699C46.1451 100.24 49.7931 100.218 53.407 99.8036L52.7632 94.1832C49.5542 94.5508 46.3149 94.5705 43.1017 94.242L42.5264 99.8699ZM39.5744 99.4798C40.5554 99.639 41.5398 99.769 42.5264 99.8699L43.1018 94.242C42.2257 94.1525 41.3515 94.037 40.4805 93.8957L39.5744 99.4798ZM39.5553 99.4767L39.574 99.4798L40.4809 93.8958L40.4621 93.8927L39.5553 99.4767ZM37.2831 95.8234L37.2169 96.2306L42.8006 97.1389L42.8668 96.7316L37.2831 95.8234ZM35.9228 99C38.4222 99 40.4485 96.9738 40.4485 94.4743H34.7913C34.7913 93.8494 35.2979 93.3429 35.9228 93.3429V99ZM31.397 94.4743C31.397 96.9738 33.4233 99 35.9228 99V93.3429C36.5476 93.3429 37.0542 93.8494 37.0542 94.4743H31.397ZM35.9228 89.9486C33.4233 89.9486 31.397 91.9748 31.397 94.4743H37.0542C37.0542 95.0992 36.5476 95.6057 35.9228 95.6057V89.9486ZM40.4485 94.4743C40.4485 91.9748 38.4222 89.9486 35.9228 89.9486V95.6057C35.2979 95.6057 34.7913 95.0992 34.7913 94.4743H40.4485ZM58.2685 94.4743C58.2685 93.8494 58.775 93.3429 59.3999 93.3429V99C61.8994 99 63.9256 96.9738 63.9256 94.4743H58.2685ZM59.3999 95.6057C58.775 95.6057 58.2685 95.0992 58.2685 94.4743H63.9256C63.9256 91.9748 61.8994 89.9486 59.3999 89.9486V95.6057ZM60.5313 94.4743C60.5313 95.0992 60.0248 95.6057 59.3999 95.6057V89.9486C56.9004 89.9486 54.8742 91.9748 54.8742 94.4743H60.5313ZM59.3999 93.3429C60.0248 93.3429 60.5313 93.8494 60.5313 94.4743H54.8742C54.8742 96.9738 56.9004 99 59.3999 99V93.3429ZM68.7631 10.0929L68.7749 10.1001L71.7166 5.26791L71.7048 5.26075L68.7631 10.0929ZM67.3518 17.8519L72.6501 9.14753L67.8178 6.20612L62.5195 14.9105L67.3518 17.8519ZM51.8782 15.2489C55.9788 15.7517 59.9601 16.9843 63.6319 18.8914L66.2394 13.871C61.968 11.6525 57.3367 10.2187 52.5667 9.63385L51.8782 15.2489ZM49.4582 13.0412C49.4852 13.1658 49.5 13.2974 49.5 13.4357H55.1571C55.1571 12.8915 55.0987 12.3578 54.9867 11.8416L49.4582 13.0412ZM49.5 13.4357C49.5 13.5602 49.488 13.6791 49.466 13.7922L55.0189 14.8732C55.1099 14.4058 55.1571 13.9249 55.1571 13.4357H49.5ZM68.1443 17.1212C63.4156 14.1428 58.1111 12.2418 52.6064 11.5276L51.8785 17.1378C56.573 17.7468 61.0967 19.368 65.1294 21.908L68.1443 17.1212ZM68.1524 17.1263L68.1447 17.1215L65.129 21.9078L65.1366 21.9126L68.1524 17.1263ZM64.549 17.5392L64.2515 18.0114L69.0375 21.0275L69.3351 20.5554L64.549 17.5392ZM68.4225 16.6371L68.4128 16.6312L65.4713 21.4634L65.481 21.4693L68.4225 16.6371ZM64.9148 16.9595L64.5356 17.5825L69.3679 20.5239L69.7471 19.9009L64.9148 16.9595ZM65.2506 16.426L64.9379 16.9221L69.724 19.9383L70.0366 19.4422L65.2506 16.426ZM66.128 20.3223L66.1357 20.3272L69.1515 15.541L69.1438 15.5361L66.128 20.3223ZM69.2756 9.79529L65.2197 16.4585L70.0521 19.3999L74.1079 12.7367L69.2756 9.79529ZM88.9344 24.9267C85.0219 18.3929 79.6223 12.8946 73.1929 8.86865L70.1906 13.6633C75.8639 17.2159 80.6285 22.0676 84.0809 27.8331L88.9344 24.9267ZM89.2211 25.4119C89.1265 25.2497 89.031 25.0879 88.9344 24.9267L84.0809 27.8331C84.1661 27.9753 84.2504 28.118 84.3339 28.2611L89.2211 25.4119ZM88.785 28.8292C89.0089 28.6036 89.2868 28.4385 89.5927 28.353L88.071 22.9044C86.7991 23.2596 85.6679 23.9392 84.7699 24.8439L88.785 28.8292ZM86.1254 26.6087C86.2141 26.7567 86.3017 26.9051 86.3885 27.0538L91.2752 24.2037C91.1774 24.036 91.0787 23.8689 90.979 23.7025L86.1254 26.6087ZM71.2162 11.4949C77.3132 15.2596 82.4308 20.4388 86.1255 26.6088L90.979 23.7024C86.8181 16.7539 81.0548 10.9212 74.1883 6.68139L71.2162 11.4949ZM68.9194 10.1688C69.6993 10.5889 70.4651 11.0311 71.2162 11.4949L74.1883 6.68139C73.3426 6.15915 72.4801 5.66108 71.6018 5.18807L68.9194 10.1688ZM68.9106 10.1641L68.9198 10.1691L71.6013 5.18783L71.5921 5.18289L68.9106 10.1641ZM72.7363 9.02487L72.7419 9.01439L67.7608 6.33263L67.7552 6.34311L72.7363 9.02487ZM91.1102 31.6545C90.8533 31.8266 90.5535 31.9344 90.2273 31.9579L90.6348 37.6004C91.9691 37.504 93.2094 37.0576 94.2592 36.3541L91.1102 31.6545ZM95.7683 49.5412C95.7571 44.1765 94.8489 38.8752 93.1029 33.8507L87.7592 35.7076C89.2999 40.1413 90.1013 44.8191 90.1111 49.553L95.7683 49.5412ZM93.1029 65.4322C94.871 60.3442 95.7796 54.9734 95.7683 49.5412L90.1111 49.553C90.1211 54.3464 89.3194 59.0856 87.7592 63.5753L93.1029 65.4322ZM90.2273 67.3249C90.5535 67.3485 90.8533 67.4563 91.1102 67.6284L94.2592 62.9287C93.2094 62.2253 91.9691 61.7788 90.6348 61.6825L90.2273 67.3249ZM92.4942 49.5481C92.5047 54.608 91.6588 59.6109 90.0127 64.3506L95.3567 66.2066C97.2105 60.8689 98.1632 55.2347 98.1513 49.5363L92.4942 49.5481ZM90.0127 34.9323C91.6383 39.6129 92.4838 44.5509 92.4942 49.5481L98.1513 49.5363C98.1396 43.9085 97.1874 38.3474 95.3567 33.0763L90.0127 34.9323ZM86.3884 72.2292C86.3331 72.324 86.2773 72.4189 86.2211 72.5137L91.0866 75.3998C91.1498 75.2932 91.2127 75.1864 91.2752 75.0792L86.3884 72.2292ZM86.2211 72.5137C82.5522 78.699 77.4562 83.8994 71.3748 87.6896L74.367 92.4906C81.2158 88.2222 86.9548 82.3655 91.0866 75.3998L86.2211 72.5137ZM71.3749 87.6896C70.623 88.1581 69.8561 88.6052 69.075 89.0298L71.777 94C72.6567 93.5217 73.5203 93.0183 74.367 92.4906L71.3749 87.6896ZM72.9111 90.1639L72.432 89.2827L67.4618 91.9847L67.9409 92.8659L72.9111 90.1639ZM72.2675 89.0163L66.9781 81.4273L62.337 84.662L67.6264 92.251L72.2675 89.0163ZM63.3749 80.5237C59.8021 82.3416 55.9442 83.5239 51.9746 84.022L52.6788 89.6351C57.2965 89.0558 61.7842 87.6804 65.9403 85.5656L63.3749 80.5237ZM55.1542 86.9076C55.1562 86.837 55.1571 86.7663 55.1571 86.6957H49.5C49.5 86.7139 49.4997 86.7318 49.4993 86.7494L55.1542 86.9076ZM55.1571 86.6957C55.1571 85.7282 54.9724 84.797 54.6337 83.9403L49.3728 86.0204C49.454 86.2257 49.5 86.4519 49.5 86.6957H55.1571ZM52.3482 87.7878C57.8309 87.1142 63.124 85.2639 67.8563 82.3413L64.8837 77.528C60.848 80.0204 56.334 81.5984 51.6583 82.1729L52.3482 87.7878ZM67.858 82.3402L67.8597 82.3392L64.8837 77.528L64.8821 77.5291L67.858 82.3402ZM63.9652 81.42L64.6647 82.5525L69.4777 79.5797L68.7782 78.4472L63.9652 81.42ZM64.7507 82.6835L69.5269 89.5363L74.168 86.3016L69.3918 79.4488L64.7507 82.6835ZM73.3583 90.3102C79.7727 86.2572 85.1509 80.7355 89.037 74.184L84.1714 71.2979C80.7423 77.0789 75.9966 81.9514 70.3365 85.5277L73.3583 90.3102ZM89.037 74.184C89.0988 74.0798 89.1602 73.9754 89.2211 73.871L84.3339 71.0217C84.28 71.114 84.2259 71.2061 84.1715 71.2979L89.037 74.184ZM89.5927 70.9298C89.2868 70.8444 89.0089 70.6793 88.785 70.4537L84.7699 74.439C85.6679 75.3436 86.7991 76.0233 88.071 76.3785L89.5927 70.9298ZM27.1785 82.1616C31.9812 85.1866 37.3777 87.1002 42.9747 87.7878L43.6645 82.1729C38.8914 81.5865 34.2892 79.9545 30.1935 77.3748L27.1785 82.1616ZM27.171 82.1569L27.1786 82.1617L30.1934 77.3748L30.1857 77.37L27.171 82.1569ZM30.0723 82.8569L31.0714 81.2715L26.2854 78.2553L25.2862 79.8407L30.0723 82.8569ZM29.2082 78.9689L29.1862 78.955L26.1723 83.7425L26.1943 83.7563L29.2082 78.9689ZM25.9 89.4617L30.0876 82.8812L25.3149 79.844L21.1273 86.4245L25.9 89.4617ZM6.38843 74.3561C10.2756 80.8476 15.6307 86.317 22.0051 90.3358L25.0222 85.5503C19.3973 82.0041 14.672 77.1779 11.2419 71.4498L6.38843 74.3561ZM5.98713 73.6733C6.11893 73.9018 6.25271 74.1295 6.38844 74.3561L11.2419 71.4498C11.1222 71.2498 11.0041 71.0489 10.8878 70.8472L5.98713 73.6733ZM7.35529 76.2592C8.60304 75.8366 9.69904 75.0973 10.5504 74.1408L6.32454 70.3797C6.11208 70.6184 5.84167 70.7991 5.54062 70.901L7.35529 76.2592ZM9.19738 72.6741C9.09503 72.5031 8.99385 72.3316 8.89387 72.1595L4.00204 75.0008C4.11465 75.1947 4.22861 75.3879 4.3439 75.5804L9.19738 72.6741ZM24.1067 87.788C18.0096 84.0232 12.892 78.844 9.1974 72.6741L4.34389 75.5804C8.50473 82.5289 14.2681 88.3616 21.1345 92.6015L24.1067 87.788ZM26.4035 89.114C25.6236 88.694 24.8577 88.2517 24.1067 87.788L21.1345 92.6015C21.9803 93.1237 22.8428 93.6218 23.7211 94.0948L26.4035 89.114ZM26.4131 89.1192L26.404 89.1143L23.7206 94.0945L23.7298 94.0995L26.4131 89.1192ZM23.6942 88.2003L22.5808 90.2687L27.5622 92.95L28.6755 90.8816L23.6942 88.2003ZM28.0178 81.3919L23.7985 88.0223L28.5712 91.0595L32.7906 84.4291L28.0178 81.3919ZM43.3482 84.022C39.2875 83.5125 35.3453 82.2871 31.7066 80.3996L29.1017 85.4214C33.3345 87.617 37.9204 89.0425 42.644 89.6351L43.3482 84.022ZM40.1657 86.6957C40.1657 86.7663 40.1667 86.837 40.1687 86.9076L45.8236 86.7494C45.8231 86.7318 45.8229 86.7139 45.8229 86.6957H40.1657ZM40.6892 83.9403C40.3505 84.797 40.1657 85.7282 40.1657 86.6957H45.8229C45.8229 86.4519 45.8688 86.2257 45.95 86.0204L40.6892 83.9403ZM4.85064 61.6635C3.50741 61.6811 2.24249 62.0542 1.15399 62.6943L4.02148 67.5708C4.28536 67.4157 4.59082 67.3245 4.92468 67.3202L4.85064 61.6635ZM-0.445394 49.7416C-0.43423 55.1019 0.47243 60.3988 2.21555 65.4195L7.55977 63.5641C6.02161 59.1337 5.22159 54.4598 5.21174 49.7298L-0.445394 49.7416ZM2.21554 33.8633C0.450405 38.9475 -0.456698 44.314 -0.445394 49.7416L5.21174 49.7298C5.20176 44.9405 6.00218 40.2051 7.55977 35.7187L2.21554 33.8633ZM1.15399 36.5886C2.24249 37.2286 3.50741 37.6018 4.85063 37.6194L4.92468 31.9627C4.59082 31.9583 4.28536 31.8672 4.02148 31.712L1.15399 36.5886ZM2.82867 49.7348C2.81823 44.7237 3.6478 39.7686 5.26273 35.0697L-0.0872652 33.231C-1.90595 38.5228 -2.84022 44.1031 -2.82846 49.7466L2.82867 49.7348ZM5.26274 64.2132C3.66814 59.5734 2.83898 54.6831 2.82867 49.7348L-2.82846 49.7466C-2.81685 55.3193 -1.88305 60.8267 -0.087265 66.0519L5.26274 64.2132ZM8.89386 27.1234C8.96261 27.0051 9.03192 26.887 9.10179 26.7692L4.23623 23.8831C4.15753 24.0158 4.07947 24.1487 4.00206 24.282L8.89386 27.1234ZM9.10179 26.7692C12.7707 20.5839 17.8667 15.3834 23.948 11.5933L20.9558 6.79226C14.1071 11.0606 8.36808 16.9173 4.23622 23.8831L9.10179 26.7692ZM23.948 11.5933C24.6999 11.1247 25.4668 10.6777 26.2479 10.253L23.5459 5.2829C22.6662 5.76114 21.8025 6.26456 20.9558 6.79225L23.948 11.5933ZM22.4118 9.11898L22.6933 9.63682L27.6635 6.93479L27.3819 6.41696L22.4118 9.11898ZM22.8578 9.90316L28.3859 17.8347L33.027 14.6L27.4989 6.66845L22.8578 9.90316ZM31.986 18.7399C35.5771 16.9182 39.4553 15.7381 43.4447 15.2489L42.7562 9.63385C38.1155 10.2028 33.6042 11.5757 29.4268 13.6947L31.986 18.7399ZM45.8229 13.4357C45.8229 13.2974 45.8376 13.1658 45.8647 13.0412L40.3362 11.8416C40.2242 12.3578 40.1657 12.8915 40.1657 13.4357H45.8229ZM45.8569 13.7922C45.8348 13.6791 45.8229 13.5602 45.8229 13.4357H40.1657C40.1657 13.9249 40.213 14.4058 40.304 14.8732L45.8569 13.7922ZM42.7165 11.5276C37.3258 12.227 32.1245 14.0649 27.4665 16.9416L30.4391 21.7548C34.4114 19.3016 38.8471 17.7342 43.4443 17.1378L42.7165 11.5276ZM27.4657 16.9421L27.464 16.9432L30.4383 21.7553L30.4399 21.7543L27.4657 16.9421ZM31.3577 17.8628L30.3729 16.2685L25.5599 19.2413L26.5446 20.8357L31.3577 17.8628ZM29.4522 20.1618L29.4656 20.1536L26.4939 15.3398L26.4806 15.348L29.4522 20.1618ZM30.3003 16.1293L25.8347 9.72213L21.1936 12.9568L25.6592 19.364L30.3003 16.1293ZM22.0056 8.94673C15.5731 13.002 10.1803 18.5334 6.28584 25.0989L11.1514 27.985C14.5878 22.1916 19.3465 17.3107 25.0226 13.7322L22.0056 8.94673ZM6.28584 25.0989C6.18518 25.2686 6.0856 25.4388 5.98712 25.6096L10.8878 28.4357C10.9747 28.2849 11.0626 28.1347 11.1514 27.985L6.28584 25.0989ZM10.5504 25.1421C9.69904 24.1856 8.60305 23.4462 7.35529 23.0236L5.54063 28.3818C5.84167 28.4838 6.11208 28.6644 6.32454 28.9032L10.5504 25.1421ZM86.2714 49.6414C86.2714 50.6568 85.4483 51.48 84.4329 51.48V57.1371C88.5726 57.1371 91.9286 53.7812 91.9286 49.6414H86.2714ZM84.4329 51.48C83.4174 51.48 82.5943 50.6568 82.5943 49.6414H76.9371C76.9371 53.7812 80.2931 57.1371 84.4329 57.1371V51.48ZM82.5943 49.6414C82.5943 48.626 83.4174 47.8029 84.4329 47.8029V42.1457C80.2931 42.1457 76.9371 45.5017 76.9371 49.6414H82.5943ZM84.4329 47.8029C85.4483 47.8029 86.2714 48.626 86.2714 49.6414H91.9286C91.9286 45.5017 88.5726 42.1457 84.4329 42.1457V47.8029ZM13.0114 49.6414C13.0114 50.6568 12.1883 51.48 11.1729 51.48V57.1371C15.3126 57.1371 18.6686 53.7812 18.6686 49.6414H13.0114ZM11.1729 51.48C10.1574 51.48 9.33429 50.6568 9.33429 49.6414H3.67714C3.67714 53.7812 7.03309 57.1371 11.1729 57.1371V51.48ZM9.33429 49.6414C9.33429 48.626 10.1574 47.8029 11.1729 47.8029V42.1457C7.03309 42.1457 3.67714 45.5017 3.67714 49.6414H9.33429ZM11.1729 47.8029C12.1883 47.8029 13.0114 48.626 13.0114 49.6414H18.6686C18.6686 45.5017 15.3126 42.1457 11.1729 42.1457V47.8029ZM49.5 13.4357C49.5 14.4511 48.6768 15.2743 47.6614 15.2743V20.9314C51.8012 20.9314 55.1571 17.5755 55.1571 13.4357H49.5ZM47.6614 15.2743C46.646 15.2743 45.8229 14.4511 45.8229 13.4357H40.1657C40.1657 17.5755 43.5217 20.9314 47.6614 20.9314V15.2743ZM45.8229 13.4357C45.8229 12.4203 46.646 11.5971 47.6614 11.5971V5.94C43.5217 5.94 40.1657 9.29595 40.1657 13.4357H45.8229ZM47.6614 11.5971C48.6768 11.5971 49.5 12.4203 49.5 13.4357H55.1571C55.1571 9.29595 51.8012 5.94 47.6614 5.94V11.5971ZM49.5 86.6957C49.5 87.7111 48.6768 88.5343 47.6614 88.5343V94.1914C51.8012 94.1914 55.1571 90.8355 55.1571 86.6957H49.5ZM47.6614 88.5343C46.646 88.5343 45.8229 87.7111 45.8229 86.6957H40.1657C40.1657 90.8355 43.5217 94.1914 47.6614 94.1914V88.5343ZM45.8229 86.6957C45.8229 85.6803 46.646 84.8571 47.6614 84.8571V79.2C43.5217 79.2 40.1657 82.5559 40.1657 86.6957H45.8229ZM47.6614 84.8571C48.6768 84.8571 49.5 85.6803 49.5 86.6957H55.1571C55.1571 82.5559 51.8012 79.2 47.6614 79.2V84.8571ZM91.9286 30.1243C91.9286 31.1397 91.1054 31.9629 90.09 31.9629V37.62C94.2298 37.62 97.5857 34.2641 97.5857 30.1243H91.9286ZM90.09 31.9629C89.0746 31.9629 88.2514 31.1397 88.2514 30.1243H82.5943C82.5943 34.2641 85.9502 37.62 90.09 37.62V31.9629ZM88.2514 30.1243C88.2514 29.1089 89.0746 28.2857 90.09 28.2857V22.6286C85.9502 22.6286 82.5943 25.9845 82.5943 30.1243H88.2514ZM90.09 28.2857C91.1054 28.2857 91.9286 29.1089 91.9286 30.1243H97.5857C97.5857 25.9845 94.2298 22.6286 90.09 22.6286V28.2857ZM6.78857 30.1243C6.78857 31.1397 5.96542 31.9629 4.95 31.9629V37.62C9.08977 37.62 12.4457 34.2641 12.4457 30.1243H6.78857ZM4.95 31.9629C3.93459 31.9629 3.11143 31.1397 3.11143 30.1243H-2.54571C-2.54571 34.2641 0.810231 37.62 4.95 37.62V31.9629ZM3.11143 30.1243C3.11143 29.1089 3.93459 28.2857 4.95 28.2857V22.6286C0.810231 22.6286 -2.54571 25.9845 -2.54571 30.1243H3.11143ZM4.95 28.2857C5.96542 28.2857 6.78857 29.1089 6.78857 30.1243H12.4457C12.4457 25.9845 9.08977 22.6286 4.95 22.6286V28.2857ZM91.9286 69.1586C91.9286 70.174 91.1054 70.9971 90.09 70.9971V76.6543C94.2298 76.6543 97.5857 73.2983 97.5857 69.1586H91.9286ZM90.09 70.9971C89.0746 70.9971 88.2514 70.174 88.2514 69.1586H82.5943C82.5943 73.2983 85.9502 76.6543 90.09 76.6543V70.9971ZM88.2514 69.1586C88.2514 68.1432 89.0746 67.32 90.09 67.32V61.6629C85.9502 61.6629 82.5943 65.0188 82.5943 69.1586H88.2514ZM90.09 67.32C91.1054 67.32 91.9286 68.1432 91.9286 69.1586H97.5857C97.5857 65.0188 94.2298 61.6629 90.09 61.6629V67.32ZM6.78857 69.1586C6.78857 70.174 5.96542 70.9971 4.95 70.9971V76.6543C9.08977 76.6543 12.4457 73.2983 12.4457 69.1586H6.78857ZM4.95 70.9971C3.93459 70.9971 3.11143 70.174 3.11143 69.1586H-2.54571C-2.54571 73.2983 0.810231 76.6543 4.95 76.6543V70.9971ZM3.11143 69.1586C3.11143 68.1432 3.93459 67.32 4.95 67.32V61.6629C0.810231 61.6629 -2.54571 65.0188 -2.54571 69.1586H3.11143ZM4.95 67.32C5.96542 67.32 6.78857 68.1432 6.78857 69.1586H12.4457C12.4457 65.0188 9.08977 61.6629 4.95 61.6629V67.32Z" fill="url(#paint1_linear_746_19)" mask="url(#path-2-inside-1_746_19)"/>
<defs>
<linearGradient id="paint0_linear_746_19" x1="47.5202" y1="21.2143" x2="47.5202" y2="77.7857" gradientUnits="userSpaceOnUse">
<stop stop-color="#5D45DC"/>
<stop offset="1" stop-color="#8F1FFF"/>
</linearGradient>
<linearGradient id="paint1_linear_746_19" x1="47.6614" y1="0" x2="47.6614" y2="99" gradientUnits="userSpaceOnUse">
<stop stop-color="#5D45DC"/>
<stop offset="1" stop-color="#8F1FFF"/>
</linearGradient>
</defs>
</svg>
